# xmcd CD database file
#
# Track frame offsets:
#	150
#	20770
#	41522
#	63420
#	85262
#	109302
#	127077
#	150555
#	169777
#	191580
#	210470
#	224682
#	245657
#	266015
#	288010
#	306750
#
# Disc length: 4395 seconds
#
# Revision: 0
# Processed by: cddbd v1.5.1PL2 Copyright (c) Steve Scherf et al.
# Submitted via: CDex 1.51
#
DISCID=ed112910
DTITLE=BREATH - B BEST
DYEAR=2005
DGENRE=JPop
TTITLE0=Darlin'
TTITLE1=Chance!
TTITLE2=Message
TTITLE3=Y〜恋時々涙〜
TTITLE4=瞳にくぎづけ (Album Version)
TTITLE5=今もし君の心に僕がいなくても
TTITLE6=つぼみ
TTITLE7=Be with you
TTITLE8=Bridge
TTITLE9=甘いキッス
TTITLE10=Mary Jane
TTITLE11=Fall in love
TTITLE12=満月
TTITLE13=プロローグ
TTITLE14=アイ・ラブ・ユー
TTITLE15=Beauty
EXTD=YEAR: 2005
EXTT0=
EXTT1=
EXTT2=
EXTT3=
EXTT4=
EXTT5=
EXTT6=
EXTT7=
EXTT8=
EXTT9=
EXTT10=
EXTT11=
EXTT12=
EXTT13=
EXTT14=
EXTT15=
PLAYORDER=
